<svg viewBox="0 0 48 48" xmlns="http://www.w3.org/2000/svg"><path style="fill:#be79b8;stroke:#be79b8;stroke-width:.5px" d="M23.217 8.057A5.5 5.5 0 0 0 18.5 13.5H10c-1.667 0-2.5.833-2.5 2.5v6.5a5.25 5.25 0 0 0 0 10.5v10.5c0 1.667.833 2.5 2.5 2.5h28.5c1.333-.333 2-1.167 2-2.5V33a5.25 5.25 0 0 0 0-10.5V16c0-1.667-.667-2.5-2-2.5h-9a5.5 5.5 0 0 0-6.283-5.443zM12 22h8l-4 6-4-6zm16 0h8l-4 6-4-6zM13 35h22a2 2 0 0 1 0 4H13a2 2 0 0 1 0-4z"/><path d="m24 7-3-3 3-3 3 3-3 3v1" style="fill:#be79b8;stroke:#be79b8;stroke-width:.5px;stroke-linejoin:round"/><path d="M28 3q1 1 0 2m2-3q1.5 2 0 4m2-5q2 3 0 6M20 3q-1 1 0 2m-2-3q-1.5 2 0 4m-2-5q-2 3 0 6" style="fill:none;stroke:#be79b8;stroke-width:.5px;stroke-linecap:round"/></svg>